<svg width="197" height="167" viewBox="0 0 197 167" fill="none" xmlns="http://www.w3.org/2000/svg">
<mask id="mask0_8_22" style="mask-type:luminance" maskUnits="userSpaceOnUse" x="0" y="0" width="197" height="167">
<path d="M197 0H0V167H197V0Z" fill="white"/>
</mask>
<g mask="url(#mask0_8_22)">
<path d="M197.001 107.3C197.001 117.73 194.617 127.978 190.086 137.023C185.555 146.068 179.035 153.595 171.177 158.854C163.318 164.113 154.394 166.921 145.295 166.998C136.194 167.075 127.235 164.418 119.31 159.293C113.981 163.78 107.644 166.425 101.047 166.917C94.4491 167.408 87.8661 165.725 82.0761 162.067C74.8934 165.349 67.2283 167.024 59.4958 167C26.6902 167 0.00219727 137.334 0.00219727 100.868C0.00219727 64.4012 26.6902 34.7352 59.4958 34.7352H59.5097C66.0034 22.3175 75.6338 12.4519 87.1264 6.44342C98.6189 0.434938 111.432 -1.43325 123.871 1.08602C136.311 3.60528 147.789 10.3933 156.789 20.552C165.788 30.7108 171.886 43.7615 174.272 57.9777C181.303 63.4295 187.053 70.7807 191.017 79.3826C194.981 87.9848 197.036 97.5728 197.001 107.3ZM118.782 143.991C119.993 143.99 121.176 144.412 122.172 145.201C126.595 148.684 131.584 151.115 136.841 152.351C142.099 153.586 147.519 153.601 152.781 152.393C158.043 151.185 163.041 148.781 167.479 145.321C171.916 141.861 175.703 137.417 178.615 132.25C181.527 127.084 183.506 121.3 184.434 115.242C185.362 109.184 185.22 102.974 184.018 96.98C182.815 90.9855 180.575 85.3287 177.432 80.3433C174.288 75.3583 170.303 71.1465 165.715 67.957C164.962 67.433 164.32 66.725 163.834 65.8835C163.348 65.0421 163.03 64.088 162.903 63.0894C161.353 50.994 156.496 39.7736 149.031 31.0413C141.565 22.309 131.876 16.5148 121.357 14.4917C110.837 12.4686 100.028 14.321 90.4843 19.7823C80.941 25.2438 73.155 34.0328 68.2447 44.8859C67.7137 46.0646 66.8944 47.0404 65.8871 47.6938C64.8797 48.3471 63.728 48.6497 62.5729 48.5645C61.3911 48.4809 60.4114 48.4408 59.4907 48.4408C33.2769 48.4408 11.95 71.9617 11.95 100.871C11.95 129.78 33.2798 153.3 59.4907 153.3C66.5907 153.326 73.6095 151.569 80.0531 148.153C80.9957 147.654 82.0352 147.444 83.0696 147.544C84.1041 147.645 85.0976 148.053 85.9526 148.728C90.2742 152.134 95.4923 153.717 100.718 153.207C105.944 152.697 110.853 150.126 114.61 145.931C115.727 144.686 117.224 143.989 118.782 143.991Z" fill="#4F80E1"/>
<path d="M134.802 39.9465H128.538C126.279 39.9465 124.448 41.8651 124.448 44.2319V68.0969C124.448 70.4637 126.279 72.3824 128.538 72.3824H134.802C137.061 72.3824 138.891 70.4637 138.891 68.0969V44.2319C138.891 41.8651 137.061 39.9465 134.802 39.9465Z" fill="#41529F"/>
<path d="M145.107 70.738L106.891 30.6829C105.857 29.6051 104.458 29 103 29C101.542 29 100.144 29.6051 99.11 30.6829L60.8939 70.738C58.5619 73.4561 57.1877 76.9289 57 80.579V87.6345C77.8788 103.914 103.219 112.686 129.242 112.642C135.86 112.643 142.468 112.079 148.999 110.956V80.579C148.809 76.9299 147.436 73.458 145.107 70.738Z" fill="#41529F"/>
<path d="M129.243 119.129C103.22 119.173 77.8802 110.401 57.0012 94.1218V132.234C57.0059 133.762 57.5871 135.226 58.6179 136.306C59.6486 137.386 61.0453 137.995 62.503 138H143.499C144.956 137.995 146.353 137.386 147.384 136.306C148.414 135.225 148.995 133.761 149 132.234V117.444C142.469 118.567 135.862 119.131 129.243 119.129Z" fill="#41529F"/>
</g>
</svg>
